<?xml version="1.0" encoding="UTF-8"?>
<svg version="1.1" xmlns="http://www.w3.org/2000/svg" width="512" height="512">
<path d="M0 0 C31.68 0 63.36 0 96 0 C96 10.56 96 21.12 96 32 C106.56 32 117.12 32 128 32 C128 42.56 128 53.12 128 64 C138.56 64 149.12 64 160 64 C160 74.56 160 85.12 160 96 C170.56 96 181.12 96 192 96 C192 106.56 192 117.12 192 128 C202.56 128 213.12 128 224 128 C224 138.56 224 149.12 224 160 C234.56 160 245.12 160 256 160 C256 170.56 256 181.12 256 192 C245.44 192 234.88 192 224 192 C224 213.12 224 234.24 224 256 C234.56 256 245.12 256 256 256 C256 277.12 256 298.24 256 320 C234.88 320 213.76 320 192 320 C192 330.56 192 341.12 192 352 C181.44 352 170.88 352 160 352 C160 362.56 160 373.12 160 384 C149.44 384 138.88 384 128 384 C128 394.56 128 405.12 128 416 C117.44 416 106.88 416 96 416 C96 405.44 96 394.88 96 384 C85.44 384 74.88 384 64 384 C64 394.56 64 405.12 64 416 C42.88 416 21.76 416 0 416 C0 426.56 0 437.12 0 448 C-31.68 448 -63.36 448 -96 448 C-96 437.44 -96 426.88 -96 416 C-106.56 416 -117.12 416 -128 416 C-128 405.44 -128 394.88 -128 384 C-138.56 384 -149.12 384 -160 384 C-160 373.44 -160 362.88 -160 352 C-170.56 352 -181.12 352 -192 352 C-192 341.44 -192 330.88 -192 320 C-202.56 320 -213.12 320 -224 320 C-224 309.44 -224 298.88 -224 288 C-234.56 288 -245.12 288 -256 288 C-256 235.2 -256 182.4 -256 128 C-234.88 128 -213.76 128 -192 128 C-192 117.44 -192 106.88 -192 96 C-170.88 96 -149.76 96 -128 96 C-128 85.44 -128 74.88 -128 64 C-106.88 64 -85.76 64 -64 64 C-64 53.44 -64 42.88 -64 32 C-42.88 32 -21.76 32 0 32 C0 21.44 0 10.88 0 0 Z " fill="#006530" transform="translate(256,32)"/>
<path d="M0 0 C21.12 0 42.24 0 64 0 C64 31.68 64 63.36 64 96 C74.56 96 85.12 96 96 96 C96 106.56 96 117.12 96 128 C106.56 128 117.12 128 128 128 C128 138.56 128 149.12 128 160 C138.56 160 149.12 160 160 160 C160 149.44 160 138.88 160 128 C170.56 128 181.12 128 192 128 C192 138.56 192 149.12 192 160 C202.56 160 213.12 160 224 160 C224 149.44 224 138.88 224 128 C255.68 128 287.36 128 320 128 C320 138.56 320 149.12 320 160 C298.88 160 277.76 160 256 160 C256 170.56 256 181.12 256 192 C234.88 192 213.76 192 192 192 C192 202.56 192 213.12 192 224 C160.32 224 128.64 224 96 224 C96 213.44 96 202.88 96 192 C85.44 192 74.88 192 64 192 C64 181.44 64 170.88 64 160 C53.44 160 42.88 160 32 160 C32 149.44 32 138.88 32 128 C21.44 128 10.88 128 0 128 C0 149.12 0 170.24 0 192 C10.56 192 21.12 192 32 192 C32 202.56 32 213.12 32 224 C42.56 224 53.12 224 64 224 C64 234.56 64 245.12 64 256 C74.56 256 85.12 256 96 256 C96 266.56 96 277.12 96 288 C127.68 288 159.36 288 192 288 C192 277.44 192 266.88 192 256 C213.12 256 234.24 256 256 256 C256 245.44 256 234.88 256 224 C277.12 224 298.24 224 320 224 C320 213.44 320 202.88 320 192 C341.12 192 362.24 192 384 192 C384 181.44 384 170.88 384 160 C405.12 160 426.24 160 448 160 C448 181.12 448 202.24 448 224 C426.88 224 405.76 224 384 224 C384 234.56 384 245.12 384 256 C373.44 256 362.88 256 352 256 C352 266.56 352 277.12 352 288 C341.44 288 330.88 288 320 288 C320 298.56 320 309.12 320 320 C309.44 320 298.88 320 288 320 C288 309.44 288 298.88 288 288 C277.44 288 266.88 288 256 288 C256 298.56 256 309.12 256 320 C234.88 320 213.76 320 192 320 C192 330.56 192 341.12 192 352 C160.32 352 128.64 352 96 352 C96 341.44 96 330.88 96 320 C85.44 320 74.88 320 64 320 C64 309.44 64 298.88 64 288 C53.44 288 42.88 288 32 288 C32 277.44 32 266.88 32 256 C21.44 256 10.88 256 0 256 C0 245.44 0 234.88 0 224 C-10.56 224 -21.12 224 -32 224 C-32 213.44 -32 202.88 -32 192 C-42.56 192 -53.12 192 -64 192 C-64 139.2 -64 86.4 -64 32 C-42.88 32 -21.76 32 0 32 C0 21.44 0 10.88 0 0 Z " fill="#012109" transform="translate(64,128)"/>
<path d="M0 0 C10.56 0 21.12 0 32 0 C32 10.56 32 21.12 32 32 C53.12 32 74.24 32 96 32 C96 42.56 96 53.12 96 64 C85.44 64 74.88 64 64 64 C64 74.56 64 85.12 64 96 C42.88 96 21.76 96 0 96 C0 106.56 0 117.12 0 128 C-21.12 128 -42.24 128 -64 128 C-64 138.56 -64 149.12 -64 160 C-85.12 160 -106.24 160 -128 160 C-128 170.56 -128 181.12 -128 192 C-159.68 192 -191.36 192 -224 192 C-224 181.44 -224 170.88 -224 160 C-234.56 160 -245.12 160 -256 160 C-256 149.44 -256 138.88 -256 128 C-266.56 128 -277.12 128 -288 128 C-288 117.44 -288 106.88 -288 96 C-298.56 96 -309.12 96 -320 96 C-320 74.88 -320 53.76 -320 32 C-309.44 32 -298.88 32 -288 32 C-288 42.56 -288 53.12 -288 64 C-277.44 64 -266.88 64 -256 64 C-256 74.56 -256 85.12 -256 96 C-245.44 96 -234.88 96 -224 96 C-224 106.56 -224 117.12 -224 128 C-192.32 128 -160.64 128 -128 128 C-128 117.44 -128 106.88 -128 96 C-106.88 96 -85.76 96 -64 96 C-64 85.44 -64 74.88 -64 64 C-42.88 64 -21.76 64 0 64 C0 42.88 0 21.76 0 0 Z " fill="#B7A970" transform="translate(384,224)"/>
<path d="M0 0 C10.56 0 21.12 0 32 0 C32 21.12 32 42.24 32 64 C42.56 64 53.12 64 64 64 C64 74.56 64 85.12 64 96 C74.56 96 85.12 96 96 96 C96 106.56 96 117.12 96 128 C106.56 128 117.12 128 128 128 C128 117.44 128 106.88 128 96 C138.56 96 149.12 96 160 96 C160 106.56 160 117.12 160 128 C170.56 128 181.12 128 192 128 C192 117.44 192 106.88 192 96 C223.68 96 255.36 96 288 96 C288 106.56 288 117.12 288 128 C266.88 128 245.76 128 224 128 C224 138.56 224 149.12 224 160 C202.88 160 181.76 160 160 160 C160 170.56 160 181.12 160 192 C128.32 192 96.64 192 64 192 C64 181.44 64 170.88 64 160 C53.44 160 42.88 160 32 160 C32 149.44 32 138.88 32 128 C21.44 128 10.88 128 0 128 C0 117.44 0 106.88 0 96 C-10.56 96 -21.12 96 -32 96 C-32 74.88 -32 53.76 -32 32 C-21.44 32 -10.88 32 0 32 C0 21.44 0 10.88 0 0 Z " fill="#004321" transform="translate(96,160)"/>
<path d="M0 0 C21.12 0 42.24 0 64 0 C64 10.56 64 21.12 64 32 C74.56 32 85.12 32 96 32 C96 53.12 96 74.24 96 96 C85.44 96 74.88 96 64 96 C64 106.56 64 117.12 64 128 C42.88 128 21.76 128 0 128 C0 149.12 0 170.24 0 192 C-10.56 192 -21.12 192 -32 192 C-32 181.44 -32 170.88 -32 160 C-42.56 160 -53.12 160 -64 160 C-64 117.76 -64 75.52 -64 32 C-42.88 32 -21.76 32 0 32 C0 21.44 0 10.88 0 0 Z " fill="#006530" transform="translate(192,64)"/>
<path d="M0 0 C31.68 0 63.36 0 96 0 C96 21.12 96 42.24 96 64 C106.56 64 117.12 64 128 64 C128 74.56 128 85.12 128 96 C96.32 96 64.64 96 32 96 C32 106.56 32 117.12 32 128 C21.44 128 10.88 128 0 128 C0 117.44 0 106.88 0 96 C-10.56 96 -21.12 96 -32 96 C-32 106.56 -32 117.12 -32 128 C-42.56 128 -53.12 128 -64 128 C-64 96.32 -64 64.64 -64 32 C-42.88 32 -21.76 32 0 32 C0 21.44 0 10.88 0 0 Z " fill="#006530" transform="translate(256,160)"/>
<path d="M0 0 C21.12 0 42.24 0 64 0 C64 21.12 64 42.24 64 64 C42.88 64 21.76 64 0 64 C0 74.56 0 85.12 0 96 C-10.56 96 -21.12 96 -32 96 C-32 106.56 -32 117.12 -32 128 C-42.56 128 -53.12 128 -64 128 C-64 138.56 -64 149.12 -64 160 C-74.56 160 -85.12 160 -96 160 C-96 128.32 -96 96.64 -96 64 C-85.44 64 -74.88 64 -64 64 C-64 53.44 -64 42.88 -64 32 C-42.88 32 -21.76 32 0 32 C0 21.44 0 10.88 0 0 Z " fill="#7CAD2F" transform="translate(448,288)"/>
<path d="M0 0 C10.56 0 21.12 0 32 0 C32 10.56 32 21.12 32 32 C42.56 32 53.12 32 64 32 C64 42.56 64 53.12 64 64 C74.56 64 85.12 64 96 64 C96 74.56 96 85.12 96 96 C106.56 96 117.12 96 128 96 C128 106.56 128 117.12 128 128 C117.44 128 106.88 128 96 128 C96 138.56 96 149.12 96 160 C74.88 160 53.76 160 32 160 C32 128.32 32 96.64 32 64 C21.44 64 10.88 64 0 64 C0 42.88 0 21.76 0 0 Z " fill="#015028" transform="translate(384,96)"/>
<path d="M0 0 C10.56 0 21.12 0 32 0 C32 10.56 32 21.12 32 32 C42.56 32 53.12 32 64 32 C64 42.56 64 53.12 64 64 C74.56 64 85.12 64 96 64 C96 74.56 96 85.12 96 96 C106.56 96 117.12 96 128 96 C128 117.12 128 138.24 128 160 C117.44 160 106.88 160 96 160 C96 149.44 96 138.88 96 128 C85.44 128 74.88 128 64 128 C64 117.44 64 106.88 64 96 C53.44 96 42.88 96 32 96 C32 85.44 32 74.88 32 64 C21.44 64 10.88 64 0 64 C0 42.88 0 21.76 0 0 Z " fill="#DACD94" transform="translate(64,256)"/>
<path d="M0 0 C31.68 0 63.36 0 96 0 C96 10.56 96 21.12 96 32 C106.56 32 117.12 32 128 32 C128 42.56 128 53.12 128 64 C85.76 64 43.52 64 0 64 C0 42.88 0 21.76 0 0 Z " fill="#003A1D" transform="translate(256,32)"/>
<path d="M0 0 C21.12 0 42.24 0 64 0 C64 21.12 64 42.24 64 64 C42.88 64 21.76 64 0 64 C0 74.56 0 85.12 0 96 C-10.56 96 -21.12 96 -32 96 C-32 74.88 -32 53.76 -32 32 C-21.44 32 -10.88 32 0 32 C0 21.44 0 10.88 0 0 Z " fill="#011905" transform="translate(448,288)"/>
<path d="M0 0 C10.56 0 21.12 0 32 0 C32 10.56 32 21.12 32 32 C53.12 32 74.24 32 96 32 C96 42.56 96 53.12 96 64 C85.44 64 74.88 64 64 64 C64 74.56 64 85.12 64 96 C53.44 96 42.88 96 32 96 C32 85.44 32 74.88 32 64 C21.44 64 10.88 64 0 64 C0 42.88 0 21.76 0 0 Z " fill="#928653" transform="translate(384,224)"/>
<path d="M0 0 C21.12 0 42.24 0 64 0 C64 21.12 64 42.24 64 64 C53.44 64 42.88 64 32 64 C32 74.56 32 85.12 32 96 C21.44 96 10.88 96 0 96 C0 64.32 0 32.64 0 0 Z " fill="#005A2C" transform="translate(192,192)"/>
<path d="M0 0 C31.68 0 63.36 0 96 0 C96 10.56 96 21.12 96 32 C85.44 32 74.88 32 64 32 C64 42.56 64 53.12 64 64 C53.44 64 42.88 64 32 64 C32 53.44 32 42.88 32 32 C21.44 32 10.88 32 0 32 C0 21.44 0 10.88 0 0 Z " fill="#B7A970" transform="translate(320,288)"/>
<path d="M0 0 C31.68 0 63.36 0 96 0 C96 10.56 96 21.12 96 32 C64.32 32 32.64 32 0 32 C0 21.44 0 10.88 0 0 Z " fill="#011905" transform="translate(160,448)"/>
<path d="M0 0 C10.56 0 21.12 0 32 0 C32 10.56 32 21.12 32 32 C42.56 32 53.12 32 64 32 C64 42.56 64 53.12 64 64 C42.88 64 21.76 64 0 64 C0 42.88 0 21.76 0 0 Z " fill="#B7A970" transform="translate(192,352)"/>
<path d="M0 0 C31.68 0 63.36 0 96 0 C96 10.56 96 21.12 96 32 C64.32 32 32.64 32 0 32 C0 21.44 0 10.88 0 0 Z " fill="#022B10" transform="translate(160,320)"/>
<path d="M0 0 C10.56 0 21.12 0 32 0 C32 10.56 32 21.12 32 32 C42.56 32 53.12 32 64 32 C64 42.56 64 53.12 64 64 C42.88 64 21.76 64 0 64 C0 42.88 0 21.76 0 0 Z " fill="#003A1D" transform="translate(448,160)"/>
<path d="M0 0 C10.56 0 21.12 0 32 0 C32 21.12 32 42.24 32 64 C10.88 64 -10.24 64 -32 64 C-32 53.44 -32 42.88 -32 32 C-21.44 32 -10.88 32 0 32 C0 21.44 0 10.88 0 0 Z " fill="#005A2C" transform="translate(96,160)"/>
<path d="M0 0 C10.56 0 21.12 0 32 0 C32 10.56 32 21.12 32 32 C42.56 32 53.12 32 64 32 C64 42.56 64 53.12 64 64 C42.88 64 21.76 64 0 64 C0 42.88 0 21.76 0 0 Z " fill="#015028" transform="translate(384,96)"/>
<path d="M0 0 C21.12 0 42.24 0 64 0 C64 10.56 64 21.12 64 32 C53.44 32 42.88 32 32 32 C32 42.56 32 53.12 32 64 C21.44 64 10.88 64 0 64 C0 42.88 0 21.76 0 0 Z " fill="#003A1D" transform="translate(64,128)"/>
<path d="M0 0 C21.12 0 42.24 0 64 0 C64 10.56 64 21.12 64 32 C42.88 32 21.76 32 0 32 C0 21.44 0 10.88 0 0 Z " fill="#011905" transform="translate(256,416)"/>
<path d="M0 0 C21.12 0 42.24 0 64 0 C64 10.56 64 21.12 64 32 C42.88 32 21.76 32 0 32 C0 21.44 0 10.88 0 0 Z " fill="#B7A970" transform="translate(224,352)"/>
<path d="M0 0 C21.12 0 42.24 0 64 0 C64 10.56 64 21.12 64 32 C42.88 32 21.76 32 0 32 C0 21.44 0 10.88 0 0 Z " fill="#022B10" transform="translate(448,288)"/>
<path d="M0 0 C10.56 0 21.12 0 32 0 C32 21.12 32 42.24 32 64 C21.44 64 10.88 64 0 64 C0 42.88 0 21.76 0 0 Z " fill="#928653" transform="translate(384,224)"/>
<path d="M0 0 C10.56 0 21.12 0 32 0 C32 21.12 32 42.24 32 64 C21.44 64 10.88 64 0 64 C0 42.88 0 21.76 0 0 Z " fill="#015028" transform="translate(320,160)"/>
<path d="M0 0 C10.56 0 21.12 0 32 0 C32 21.12 32 42.24 32 64 C21.44 64 10.88 64 0 64 C0 42.88 0 21.76 0 0 Z " fill="#009E33" transform="translate(256,160)"/>
<path d="M0 0 C21.12 0 42.24 0 64 0 C64 10.56 64 21.12 64 32 C42.88 32 21.76 32 0 32 C0 21.44 0 10.88 0 0 Z " fill="#003A1D" transform="translate(128,96)"/>
<path d="M0 0 C21.12 0 42.24 0 64 0 C64 10.56 64 21.12 64 32 C42.88 32 21.76 32 0 32 C0 21.44 0 10.88 0 0 Z " fill="#015028" transform="translate(256,64)"/>
<path d="M0 0 C10.56 0 21.12 0 32 0 C32 10.56 32 21.12 32 32 C21.44 32 10.88 32 0 32 C0 21.44 0 10.88 0 0 Z " fill="#245B07" transform="translate(352,416)"/>
<path d="M0 0 C10.56 0 21.12 0 32 0 C32 10.56 32 21.12 32 32 C21.44 32 10.88 32 0 32 C0 21.44 0 10.88 0 0 Z " fill="#003A1D" transform="translate(192,416)"/>
<path d="M0 0 C10.56 0 21.12 0 32 0 C32 10.56 32 21.12 32 32 C21.44 32 10.88 32 0 32 C0 21.44 0 10.88 0 0 Z " fill="#011905" transform="translate(128,416)"/>
<path d="M0 0 C10.56 0 21.12 0 32 0 C32 10.56 32 21.12 32 32 C21.44 32 10.88 32 0 32 C0 21.44 0 10.88 0 0 Z " fill="#327310" transform="translate(384,384)"/>
<path d="M0 0 C10.56 0 21.12 0 32 0 C32 10.56 32 21.12 32 32 C21.44 32 10.88 32 0 32 C0 21.44 0 10.88 0 0 Z " fill="#7CAD2F" transform="translate(352,384)"/>
<path d="M0 0 C10.56 0 21.12 0 32 0 C32 10.56 32 21.12 32 32 C21.44 32 10.88 32 0 32 C0 21.44 0 10.88 0 0 Z " fill="#003A1D" transform="translate(256,384)"/>
<path d="M0 0 C10.56 0 21.12 0 32 0 C32 10.56 32 21.12 32 32 C21.44 32 10.88 32 0 32 C0 21.44 0 10.88 0 0 Z " fill="#928653" transform="translate(224,384)"/>
<path d="M0 0 C10.56 0 21.12 0 32 0 C32 10.56 32 21.12 32 32 C21.44 32 10.88 32 0 32 C0 21.44 0 10.88 0 0 Z " fill="#DACD94" transform="translate(160,384)"/>
<path d="M0 0 C10.56 0 21.12 0 32 0 C32 10.56 32 21.12 32 32 C21.44 32 10.88 32 0 32 C0 21.44 0 10.88 0 0 Z " fill="#003A1D" transform="translate(128,384)"/>
<path d="M0 0 C10.56 0 21.12 0 32 0 C32 10.56 32 21.12 32 32 C21.44 32 10.88 32 0 32 C0 21.44 0 10.88 0 0 Z " fill="#022008" transform="translate(96,384)"/>
<path d="M0 0 C10.56 0 21.12 0 32 0 C32 10.56 32 21.12 32 32 C21.44 32 10.88 32 0 32 C0 21.44 0 10.88 0 0 Z " fill="#488E23" transform="translate(352,352)"/>
<path d="M0 0 C10.56 0 21.12 0 32 0 C32 10.56 32 21.12 32 32 C21.44 32 10.88 32 0 32 C0 21.44 0 10.88 0 0 Z " fill="#003A1D" transform="translate(320,352)"/>
<path d="M0 0 C10.56 0 21.12 0 32 0 C32 10.56 32 21.12 32 32 C21.44 32 10.88 32 0 32 C0 21.44 0 10.88 0 0 Z " fill="#928653" transform="translate(288,352)"/>
<path d="M0 0 C10.56 0 21.12 0 32 0 C32 10.56 32 21.12 32 32 C21.44 32 10.88 32 0 32 C0 21.44 0 10.88 0 0 Z " fill="#DACD94" transform="translate(224,352)"/>
<path d="M0 0 C10.56 0 21.12 0 32 0 C32 10.56 32 21.12 32 32 C21.44 32 10.88 32 0 32 C0 21.44 0 10.88 0 0 Z " fill="#928653" transform="translate(192,352)"/>
<path d="M0 0 C10.56 0 21.12 0 32 0 C32 10.56 32 21.12 32 32 C21.44 32 10.88 32 0 32 C0 21.44 0 10.88 0 0 Z " fill="#B7A970" transform="translate(160,352)"/>
<path d="M0 0 C10.56 0 21.12 0 32 0 C32 10.56 32 21.12 32 32 C21.44 32 10.88 32 0 32 C0 21.44 0 10.88 0 0 Z " fill="#EDE1AB" transform="translate(128,352)"/>
<path d="M0 0 C10.56 0 21.12 0 32 0 C32 10.56 32 21.12 32 32 C21.44 32 10.88 32 0 32 C0 21.44 0 10.88 0 0 Z " fill="#006530" transform="translate(96,352)"/>
<path d="M0 0 C10.56 0 21.12 0 32 0 C32 10.56 32 21.12 32 32 C21.44 32 10.88 32 0 32 C0 21.44 0 10.88 0 0 Z " fill="#022B10" transform="translate(416,320)"/>
<path d="M0 0 C10.56 0 21.12 0 32 0 C32 10.56 32 21.12 32 32 C21.44 32 10.88 32 0 32 C0 21.44 0 10.88 0 0 Z " fill="#488E23" transform="translate(384,320)"/>
<path d="M0 0 C10.56 0 21.12 0 32 0 C32 10.56 32 21.12 32 32 C21.44 32 10.88 32 0 32 C0 21.44 0 10.88 0 0 Z " fill="#928653" transform="translate(352,320)"/>
<path d="M0 0 C10.56 0 21.12 0 32 0 C32 10.56 32 21.12 32 32 C21.44 32 10.88 32 0 32 C0 21.44 0 10.88 0 0 Z " fill="#928653" transform="translate(256,320)"/>
<path d="M0 0 C10.56 0 21.12 0 32 0 C32 10.56 32 21.12 32 32 C21.44 32 10.88 32 0 32 C0 21.44 0 10.88 0 0 Z " fill="#003A1D" transform="translate(224,320)"/>
<path d="M0 0 C10.56 0 21.12 0 32 0 C32 10.56 32 21.12 32 32 C21.44 32 10.88 32 0 32 C0 21.44 0 10.88 0 0 Z " fill="#B7A970" transform="translate(128,320)"/>
<path d="M0 0 C10.56 0 21.12 0 32 0 C32 10.56 32 21.12 32 32 C21.44 32 10.88 32 0 32 C0 21.44 0 10.88 0 0 Z " fill="#EDE1AB" transform="translate(96,320)"/>
<path d="M0 0 C10.56 0 21.12 0 32 0 C32 10.56 32 21.12 32 32 C21.44 32 10.88 32 0 32 C0 21.44 0 10.88 0 0 Z " fill="#006530" transform="translate(64,320)"/>
<path d="M0 0 C10.56 0 21.12 0 32 0 C32 10.56 32 21.12 32 32 C21.44 32 10.88 32 0 32 C0 21.44 0 10.88 0 0 Z " fill="#928653" transform="translate(416,288)"/>
<path d="M0 0 C10.56 0 21.12 0 32 0 C32 10.56 32 21.12 32 32 C21.44 32 10.88 32 0 32 C0 21.44 0 10.88 0 0 Z " fill="#928653" transform="translate(320,288)"/>
<path d="M0 0 C10.56 0 21.12 0 32 0 C32 10.56 32 21.12 32 32 C21.44 32 10.88 32 0 32 C0 21.44 0 10.88 0 0 Z " fill="#015028" transform="translate(160,288)"/>
<path d="M0 0 C10.56 0 21.12 0 32 0 C32 10.56 32 21.12 32 32 C21.44 32 10.88 32 0 32 C0 21.44 0 10.88 0 0 Z " fill="#022B10" transform="translate(128,288)"/>
<path d="M0 0 C10.56 0 21.12 0 32 0 C32 10.56 32 21.12 32 32 C21.44 32 10.88 32 0 32 C0 21.44 0 10.88 0 0 Z " fill="#B7A970" transform="translate(96,288)"/>
<path d="M0 0 C10.56 0 21.12 0 32 0 C32 10.56 32 21.12 32 32 C21.44 32 10.88 32 0 32 C0 21.44 0 10.88 0 0 Z " fill="#003A1D" transform="translate(32,288)"/>
<path d="M0 0 C10.56 0 21.12 0 32 0 C32 10.56 32 21.12 32 32 C21.44 32 10.88 32 0 32 C0 21.44 0 10.88 0 0 Z " fill="#B7A970" transform="translate(416,256)"/>
<path d="M0 0 C10.56 0 21.12 0 32 0 C32 10.56 32 21.12 32 32 C21.44 32 10.88 32 0 32 C0 21.44 0 10.88 0 0 Z " fill="#015028" transform="translate(288,256)"/>
<path d="M0 0 C10.56 0 21.12 0 32 0 C32 10.56 32 21.12 32 32 C21.44 32 10.88 32 0 32 C0 21.44 0 10.88 0 0 Z " fill="#DC9613" transform="translate(256,256)"/>
<path d="M0 0 C10.56 0 21.12 0 32 0 C32 10.56 32 21.12 32 32 C21.44 32 10.88 32 0 32 C0 21.44 0 10.88 0 0 Z " fill="#006530" transform="translate(224,256)"/>
<path d="M0 0 C10.56 0 21.12 0 32 0 C32 10.56 32 21.12 32 32 C21.44 32 10.88 32 0 32 C0 21.44 0 10.88 0 0 Z " fill="#B26411" transform="translate(192,256)"/>
<path d="M0 0 C10.56 0 21.12 0 32 0 C32 10.56 32 21.12 32 32 C21.44 32 10.88 32 0 32 C0 21.44 0 10.88 0 0 Z " fill="#015028" transform="translate(128,256)"/>
<path d="M0 0 C10.56 0 21.12 0 32 0 C32 10.56 32 21.12 32 32 C21.44 32 10.88 32 0 32 C0 21.44 0 10.88 0 0 Z " fill="#022B10" transform="translate(96,256)"/>
<path d="M0 0 C10.56 0 21.12 0 32 0 C32 10.56 32 21.12 32 32 C21.44 32 10.88 32 0 32 C0 21.44 0 10.88 0 0 Z " fill="#B7A970" transform="translate(64,256)"/>
<path d="M0 0 C10.56 0 21.12 0 32 0 C32 10.56 32 21.12 32 32 C21.44 32 10.88 32 0 32 C0 21.44 0 10.88 0 0 Z " fill="#022B10" transform="translate(32,256)"/>
<path d="M0 0 C10.56 0 21.12 0 32 0 C32 10.56 32 21.12 32 32 C21.44 32 10.88 32 0 32 C0 21.44 0 10.88 0 0 Z " fill="#5F5631" transform="translate(448,224)"/>
<path d="M0 0 C10.56 0 21.12 0 32 0 C32 10.56 32 21.12 32 32 C21.44 32 10.88 32 0 32 C0 21.44 0 10.88 0 0 Z " fill="#003A1D" transform="translate(416,224)"/>
<path d="M0 0 C10.56 0 21.12 0 32 0 C32 10.56 32 21.12 32 32 C21.44 32 10.88 32 0 32 C0 21.44 0 10.88 0 0 Z " fill="#B26411" transform="translate(384,224)"/>
<path d="M0 0 C10.56 0 21.12 0 32 0 C32 10.56 32 21.12 32 32 C21.44 32 10.88 32 0 32 C0 21.44 0 10.88 0 0 Z " fill="#015028" transform="translate(352,224)"/>
<path d="M0 0 C10.56 0 21.12 0 32 0 C32 10.56 32 21.12 32 32 C21.44 32 10.88 32 0 32 C0 21.44 0 10.88 0 0 Z " fill="#FDF55F" transform="translate(160,224)"/>
<path d="M0 0 C10.56 0 21.12 0 32 0 C32 10.56 32 21.12 32 32 C21.44 32 10.88 32 0 32 C0 21.44 0 10.88 0 0 Z " fill="#003A1D" transform="translate(64,224)"/>
<path d="M0 0 C10.56 0 21.12 0 32 0 C32 10.56 32 21.12 32 32 C21.44 32 10.88 32 0 32 C0 21.44 0 10.88 0 0 Z " fill="#022008" transform="translate(480,192)"/>
<path d="M0 0 C10.56 0 21.12 0 32 0 C32 10.56 32 21.12 32 32 C21.44 32 10.88 32 0 32 C0 21.44 0 10.88 0 0 Z " fill="#FDF55F" transform="translate(352,192)"/>
<path d="M0 0 C10.56 0 21.12 0 32 0 C32 10.56 32 21.12 32 32 C21.44 32 10.88 32 0 32 C0 21.44 0 10.88 0 0 Z " fill="#006821" transform="translate(224,192)"/>
<path d="M0 0 C10.56 0 21.12 0 32 0 C32 10.56 32 21.12 32 32 C21.44 32 10.88 32 0 32 C0 21.44 0 10.88 0 0 Z " fill="#015028" transform="translate(192,192)"/>
<path d="M0 0 C10.56 0 21.12 0 32 0 C32 10.56 32 21.12 32 32 C21.44 32 10.88 32 0 32 C0 21.44 0 10.88 0 0 Z " fill="#DC9613" transform="translate(128,192)"/>
<path d="M0 0 C10.56 0 21.12 0 32 0 C32 10.56 32 21.12 32 32 C21.44 32 10.88 32 0 32 C0 21.44 0 10.88 0 0 Z " fill="#022B10" transform="translate(32,192)"/>
<path d="M0 0 C10.56 0 21.12 0 32 0 C32 10.56 32 21.12 32 32 C21.44 32 10.88 32 0 32 C0 21.44 0 10.88 0 0 Z " fill="#022B10" transform="translate(448,160)"/>
<path d="M0 0 C10.56 0 21.12 0 32 0 C32 10.56 32 21.12 32 32 C21.44 32 10.88 32 0 32 C0 21.44 0 10.88 0 0 Z " fill="#003A1D" transform="translate(320,160)"/>
<path d="M0 0 C10.56 0 21.12 0 32 0 C32 10.56 32 21.12 32 32 C21.44 32 10.88 32 0 32 C0 21.44 0 10.88 0 0 Z " fill="#00892C" transform="translate(256,160)"/>
<path d="M0 0 C10.56 0 21.12 0 32 0 C32 10.56 32 21.12 32 32 C21.44 32 10.88 32 0 32 C0 21.44 0 10.88 0 0 Z " fill="#6ACB00" transform="translate(224,160)"/>
<path d="M0 0 C10.56 0 21.12 0 32 0 C32 10.56 32 21.12 32 32 C21.44 32 10.88 32 0 32 C0 21.44 0 10.88 0 0 Z " fill="#015028" transform="translate(96,160)"/>
<path d="M0 0 C10.56 0 21.12 0 32 0 C32 10.56 32 21.12 32 32 C21.44 32 10.88 32 0 32 C0 21.44 0 10.88 0 0 Z " fill="#022B10" transform="translate(416,128)"/>
<path d="M0 0 C10.56 0 21.12 0 32 0 C32 10.56 32 21.12 32 32 C21.44 32 10.88 32 0 32 C0 21.44 0 10.88 0 0 Z " fill="#015028" transform="translate(288,128)"/>
<path d="M0 0 C10.56 0 21.12 0 32 0 C32 10.56 32 21.12 32 32 C21.44 32 10.88 32 0 32 C0 21.44 0 10.88 0 0 Z " fill="#DC9613" transform="translate(128,128)"/>
<path d="M0 0 C10.56 0 21.12 0 32 0 C32 10.56 32 21.12 32 32 C21.44 32 10.88 32 0 32 C0 21.44 0 10.88 0 0 Z " fill="#022B10" transform="translate(64,128)"/>
<path d="M0 0 C10.56 0 21.12 0 32 0 C32 10.56 32 21.12 32 32 C21.44 32 10.88 32 0 32 C0 21.44 0 10.88 0 0 Z " fill="#022B10" transform="translate(384,96)"/>
<path d="M0 0 C10.56 0 21.12 0 32 0 C32 10.56 32 21.12 32 32 C21.44 32 10.88 32 0 32 C0 21.44 0 10.88 0 0 Z " fill="#015028" transform="translate(352,96)"/>
<path d="M0 0 C10.56 0 21.12 0 32 0 C32 10.56 32 21.12 32 32 C21.44 32 10.88 32 0 32 C0 21.44 0 10.88 0 0 Z " fill="#DC9613" transform="translate(256,96)"/>
<path d="M0 0 C10.56 0 21.12 0 32 0 C32 10.56 32 21.12 32 32 C21.44 32 10.88 32 0 32 C0 21.44 0 10.88 0 0 Z " fill="#015028" transform="translate(224,96)"/>
<path d="M0 0 C10.56 0 21.12 0 32 0 C32 10.56 32 21.12 32 32 C21.44 32 10.88 32 0 32 C0 21.44 0 10.88 0 0 Z " fill="#022B10" transform="translate(352,64)"/>
<path d="M0 0 C10.56 0 21.12 0 32 0 C32 10.56 32 21.12 32 32 C21.44 32 10.88 32 0 32 C0 21.44 0 10.88 0 0 Z " fill="#B26411" transform="translate(224,64)"/>
<path d="M0 0 C10.56 0 21.12 0 32 0 C32 10.56 32 21.12 32 32 C21.44 32 10.88 32 0 32 C0 21.44 0 10.88 0 0 Z " fill="#003A1D" transform="translate(192,64)"/>
<path d="M0 0 C10.56 0 21.12 0 32 0 C32 10.56 32 21.12 32 32 C21.44 32 10.88 32 0 32 C0 21.44 0 10.88 0 0 Z " fill="#022B10" transform="translate(320,32)"/>
</svg>
